G04 #@! TF.GenerationSoftware,KiCad,Pcbnew,(5.1.5)-3*
G04 #@! TF.CreationDate,2020-09-27T12:59:51-04:00*
G04 #@! TF.ProjectId,LED Driver STM,4c454420-4472-4697-9665-722053544d2e,rev?*
G04 #@! TF.SameCoordinates,Original*
G04 #@! TF.FileFunction,Soldermask,Bot*
G04 #@! TF.FilePolarity,Negative*
%FSLAX46Y46*%
G04 Gerber Fmt 4.6, Leading zero omitted, Abs format (unit mm)*
G04 Created by KiCad (PCBNEW (5.1.5)-3) date 2020-09-27 12:59:51*
%MOMM*%
%LPD*%
G04 APERTURE LIST*
%ADD10C,0.100000*%
G04 APERTURE END LIST*
D10*
G36*
X133601000Y-130301000D02*
G01*
X131799000Y-130301000D01*
X131799000Y-128499000D01*
X133601000Y-128499000D01*
X133601000Y-130301000D01*
G37*
G36*
X127733512Y-128503927D02*
G01*
X127882812Y-128533624D01*
X128046784Y-128601544D01*
X128194354Y-128700147D01*
X128319853Y-128825646D01*
X128418456Y-128973216D01*
X128486376Y-129137188D01*
X128521000Y-129311259D01*
X128521000Y-129488741D01*
X128486376Y-129662812D01*
X128418456Y-129826784D01*
X128319853Y-129974354D01*
X128194354Y-130099853D01*
X128046784Y-130198456D01*
X127882812Y-130266376D01*
X127733512Y-130296073D01*
X127708742Y-130301000D01*
X127531258Y-130301000D01*
X127506488Y-130296073D01*
X127357188Y-130266376D01*
X127193216Y-130198456D01*
X127045646Y-130099853D01*
X126920147Y-129974354D01*
X126821544Y-129826784D01*
X126753624Y-129662812D01*
X126719000Y-129488741D01*
X126719000Y-129311259D01*
X126753624Y-129137188D01*
X126821544Y-128973216D01*
X126920147Y-128825646D01*
X127045646Y-128700147D01*
X127193216Y-128601544D01*
X127357188Y-128533624D01*
X127506488Y-128503927D01*
X127531258Y-128499000D01*
X127708742Y-128499000D01*
X127733512Y-128503927D01*
G37*
G36*
X130273512Y-128503927D02*
G01*
X130422812Y-128533624D01*
X130586784Y-128601544D01*
X130734354Y-128700147D01*
X130859853Y-128825646D01*
X130958456Y-128973216D01*
X131026376Y-129137188D01*
X131061000Y-129311259D01*
X131061000Y-129488741D01*
X131026376Y-129662812D01*
X130958456Y-129826784D01*
X130859853Y-129974354D01*
X130734354Y-130099853D01*
X130586784Y-130198456D01*
X130422812Y-130266376D01*
X130273512Y-130296073D01*
X130248742Y-130301000D01*
X130071258Y-130301000D01*
X130046488Y-130296073D01*
X129897188Y-130266376D01*
X129733216Y-130198456D01*
X129585646Y-130099853D01*
X129460147Y-129974354D01*
X129361544Y-129826784D01*
X129293624Y-129662812D01*
X129259000Y-129488741D01*
X129259000Y-129311259D01*
X129293624Y-129137188D01*
X129361544Y-128973216D01*
X129460147Y-128825646D01*
X129585646Y-128700147D01*
X129733216Y-128601544D01*
X129897188Y-128533624D01*
X130046488Y-128503927D01*
X130071258Y-128499000D01*
X130248742Y-128499000D01*
X130273512Y-128503927D01*
G37*
G36*
X127813512Y-124643927D02*
G01*
X127962812Y-124673624D01*
X128126784Y-124741544D01*
X128274354Y-124840147D01*
X128399853Y-124965646D01*
X128498456Y-125113216D01*
X128566376Y-125277188D01*
X128601000Y-125451259D01*
X128601000Y-125628741D01*
X128566376Y-125802812D01*
X128498456Y-125966784D01*
X128399853Y-126114354D01*
X128274354Y-126239853D01*
X128126784Y-126338456D01*
X127962812Y-126406376D01*
X127813512Y-126436073D01*
X127788742Y-126441000D01*
X127611258Y-126441000D01*
X127586488Y-126436073D01*
X127437188Y-126406376D01*
X127273216Y-126338456D01*
X127125646Y-126239853D01*
X127000147Y-126114354D01*
X126901544Y-125966784D01*
X126833624Y-125802812D01*
X126799000Y-125628741D01*
X126799000Y-125451259D01*
X126833624Y-125277188D01*
X126901544Y-125113216D01*
X127000147Y-124965646D01*
X127125646Y-124840147D01*
X127273216Y-124741544D01*
X127437188Y-124673624D01*
X127586488Y-124643927D01*
X127611258Y-124639000D01*
X127788742Y-124639000D01*
X127813512Y-124643927D01*
G37*
G36*
X131513512Y-124643927D02*
G01*
X131662812Y-124673624D01*
X131826784Y-124741544D01*
X131974354Y-124840147D01*
X132099853Y-124965646D01*
X132198456Y-125113216D01*
X132266376Y-125277188D01*
X132301000Y-125451259D01*
X132301000Y-125628741D01*
X132266376Y-125802812D01*
X132198456Y-125966784D01*
X132099853Y-126114354D01*
X131974354Y-126239853D01*
X131826784Y-126338456D01*
X131662812Y-126406376D01*
X131513512Y-126436073D01*
X131488742Y-126441000D01*
X131311258Y-126441000D01*
X131286488Y-126436073D01*
X131137188Y-126406376D01*
X130973216Y-126338456D01*
X130825646Y-126239853D01*
X130700147Y-126114354D01*
X130601544Y-125966784D01*
X130533624Y-125802812D01*
X130499000Y-125628741D01*
X130499000Y-125451259D01*
X130533624Y-125277188D01*
X130601544Y-125113216D01*
X130700147Y-124965646D01*
X130825646Y-124840147D01*
X130973216Y-124741544D01*
X131137188Y-124673624D01*
X131286488Y-124643927D01*
X131311258Y-124639000D01*
X131488742Y-124639000D01*
X131513512Y-124643927D01*
G37*
G36*
X101213512Y-124363927D02*
G01*
X101362812Y-124393624D01*
X101526784Y-124461544D01*
X101674354Y-124560147D01*
X101799853Y-124685646D01*
X101898456Y-124833216D01*
X101966376Y-124997188D01*
X102001000Y-125171259D01*
X102001000Y-125348741D01*
X101966376Y-125522812D01*
X101898456Y-125686784D01*
X101799853Y-125834354D01*
X101674354Y-125959853D01*
X101526784Y-126058456D01*
X101362812Y-126126376D01*
X101213512Y-126156073D01*
X101188742Y-126161000D01*
X101011258Y-126161000D01*
X100986488Y-126156073D01*
X100837188Y-126126376D01*
X100673216Y-126058456D01*
X100525646Y-125959853D01*
X100400147Y-125834354D01*
X100301544Y-125686784D01*
X100233624Y-125522812D01*
X100199000Y-125348741D01*
X100199000Y-125171259D01*
X100233624Y-124997188D01*
X100301544Y-124833216D01*
X100400147Y-124685646D01*
X100525646Y-124560147D01*
X100673216Y-124461544D01*
X100837188Y-124393624D01*
X100986488Y-124363927D01*
X101011258Y-124359000D01*
X101188742Y-124359000D01*
X101213512Y-124363927D01*
G37*
G36*
X132301000Y-123901000D02*
G01*
X130499000Y-123901000D01*
X130499000Y-122099000D01*
X132301000Y-122099000D01*
X132301000Y-123901000D01*
G37*
G36*
X128601000Y-123901000D02*
G01*
X126799000Y-123901000D01*
X126799000Y-122099000D01*
X128601000Y-122099000D01*
X128601000Y-123901000D01*
G37*
G36*
X101213512Y-121823927D02*
G01*
X101362812Y-121853624D01*
X101526784Y-121921544D01*
X101674354Y-122020147D01*
X101799853Y-122145646D01*
X101898456Y-122293216D01*
X101966376Y-122457188D01*
X102001000Y-122631259D01*
X102001000Y-122808741D01*
X101966376Y-122982812D01*
X101898456Y-123146784D01*
X101799853Y-123294354D01*
X101674354Y-123419853D01*
X101526784Y-123518456D01*
X101362812Y-123586376D01*
X101213512Y-123616073D01*
X101188742Y-123621000D01*
X101011258Y-123621000D01*
X100986488Y-123616073D01*
X100837188Y-123586376D01*
X100673216Y-123518456D01*
X100525646Y-123419853D01*
X100400147Y-123294354D01*
X100301544Y-123146784D01*
X100233624Y-122982812D01*
X100199000Y-122808741D01*
X100199000Y-122631259D01*
X100233624Y-122457188D01*
X100301544Y-122293216D01*
X100400147Y-122145646D01*
X100525646Y-122020147D01*
X100673216Y-121921544D01*
X100837188Y-121853624D01*
X100986488Y-121823927D01*
X101011258Y-121819000D01*
X101188742Y-121819000D01*
X101213512Y-121823927D01*
G37*
G36*
X101213512Y-119283927D02*
G01*
X101362812Y-119313624D01*
X101526784Y-119381544D01*
X101674354Y-119480147D01*
X101799853Y-119605646D01*
X101898456Y-119753216D01*
X101966376Y-119917188D01*
X102001000Y-120091259D01*
X102001000Y-120268741D01*
X101966376Y-120442812D01*
X101898456Y-120606784D01*
X101799853Y-120754354D01*
X101674354Y-120879853D01*
X101526784Y-120978456D01*
X101362812Y-121046376D01*
X101213512Y-121076073D01*
X101188742Y-121081000D01*
X101011258Y-121081000D01*
X100986488Y-121076073D01*
X100837188Y-121046376D01*
X100673216Y-120978456D01*
X100525646Y-120879853D01*
X100400147Y-120754354D01*
X100301544Y-120606784D01*
X100233624Y-120442812D01*
X100199000Y-120268741D01*
X100199000Y-120091259D01*
X100233624Y-119917188D01*
X100301544Y-119753216D01*
X100400147Y-119605646D01*
X100525646Y-119480147D01*
X100673216Y-119381544D01*
X100837188Y-119313624D01*
X100986488Y-119283927D01*
X101011258Y-119279000D01*
X101188742Y-119279000D01*
X101213512Y-119283927D01*
G37*
G36*
X127813512Y-118243927D02*
G01*
X127962812Y-118273624D01*
X128126784Y-118341544D01*
X128274354Y-118440147D01*
X128399853Y-118565646D01*
X128498456Y-118713216D01*
X128566376Y-118877188D01*
X128601000Y-119051259D01*
X128601000Y-119228741D01*
X128566376Y-119402812D01*
X128498456Y-119566784D01*
X128399853Y-119714354D01*
X128274354Y-119839853D01*
X128126784Y-119938456D01*
X127962812Y-120006376D01*
X127813512Y-120036073D01*
X127788742Y-120041000D01*
X127611258Y-120041000D01*
X127586488Y-120036073D01*
X127437188Y-120006376D01*
X127273216Y-119938456D01*
X127125646Y-119839853D01*
X127000147Y-119714354D01*
X126901544Y-119566784D01*
X126833624Y-119402812D01*
X126799000Y-119228741D01*
X126799000Y-119051259D01*
X126833624Y-118877188D01*
X126901544Y-118713216D01*
X127000147Y-118565646D01*
X127125646Y-118440147D01*
X127273216Y-118341544D01*
X127437188Y-118273624D01*
X127586488Y-118243927D01*
X127611258Y-118239000D01*
X127788742Y-118239000D01*
X127813512Y-118243927D01*
G37*
G36*
X101213512Y-116743927D02*
G01*
X101362812Y-116773624D01*
X101526784Y-116841544D01*
X101674354Y-116940147D01*
X101799853Y-117065646D01*
X101898456Y-117213216D01*
X101966376Y-117377188D01*
X102001000Y-117551259D01*
X102001000Y-117728741D01*
X101966376Y-117902812D01*
X101898456Y-118066784D01*
X101799853Y-118214354D01*
X101674354Y-118339853D01*
X101526784Y-118438456D01*
X101362812Y-118506376D01*
X101213512Y-118536073D01*
X101188742Y-118541000D01*
X101011258Y-118541000D01*
X100986488Y-118536073D01*
X100837188Y-118506376D01*
X100673216Y-118438456D01*
X100525646Y-118339853D01*
X100400147Y-118214354D01*
X100301544Y-118066784D01*
X100233624Y-117902812D01*
X100199000Y-117728741D01*
X100199000Y-117551259D01*
X100233624Y-117377188D01*
X100301544Y-117213216D01*
X100400147Y-117065646D01*
X100525646Y-116940147D01*
X100673216Y-116841544D01*
X100837188Y-116773624D01*
X100986488Y-116743927D01*
X101011258Y-116739000D01*
X101188742Y-116739000D01*
X101213512Y-116743927D01*
G37*
G36*
X128601000Y-117501000D02*
G01*
X126799000Y-117501000D01*
X126799000Y-115699000D01*
X128601000Y-115699000D01*
X128601000Y-117501000D01*
G37*
G36*
X102001000Y-116001000D02*
G01*
X100199000Y-116001000D01*
X100199000Y-114199000D01*
X102001000Y-114199000D01*
X102001000Y-116001000D01*
G37*
G36*
X127373512Y-110303927D02*
G01*
X127522812Y-110333624D01*
X127686784Y-110401544D01*
X127834354Y-110500147D01*
X127959853Y-110625646D01*
X128058456Y-110773216D01*
X128126376Y-110937188D01*
X128161000Y-111111259D01*
X128161000Y-111288741D01*
X128126376Y-111462812D01*
X128058456Y-111626784D01*
X127959853Y-111774354D01*
X127834354Y-111899853D01*
X127686784Y-111998456D01*
X127522812Y-112066376D01*
X127373512Y-112096073D01*
X127348742Y-112101000D01*
X127171258Y-112101000D01*
X127146488Y-112096073D01*
X126997188Y-112066376D01*
X126833216Y-111998456D01*
X126685646Y-111899853D01*
X126560147Y-111774354D01*
X126461544Y-111626784D01*
X126393624Y-111462812D01*
X126359000Y-111288741D01*
X126359000Y-111111259D01*
X126393624Y-110937188D01*
X126461544Y-110773216D01*
X126560147Y-110625646D01*
X126685646Y-110500147D01*
X126833216Y-110401544D01*
X126997188Y-110333624D01*
X127146488Y-110303927D01*
X127171258Y-110299000D01*
X127348742Y-110299000D01*
X127373512Y-110303927D01*
G37*
G36*
X107693512Y-110303927D02*
G01*
X107842812Y-110333624D01*
X108006784Y-110401544D01*
X108154354Y-110500147D01*
X108279853Y-110625646D01*
X108378456Y-110773216D01*
X108446376Y-110937188D01*
X108481000Y-111111259D01*
X108481000Y-111288741D01*
X108446376Y-111462812D01*
X108378456Y-111626784D01*
X108279853Y-111774354D01*
X108154354Y-111899853D01*
X108006784Y-111998456D01*
X107842812Y-112066376D01*
X107693512Y-112096073D01*
X107668742Y-112101000D01*
X107491258Y-112101000D01*
X107466488Y-112096073D01*
X107317188Y-112066376D01*
X107153216Y-111998456D01*
X107005646Y-111899853D01*
X106880147Y-111774354D01*
X106781544Y-111626784D01*
X106713624Y-111462812D01*
X106679000Y-111288741D01*
X106679000Y-111111259D01*
X106713624Y-110937188D01*
X106781544Y-110773216D01*
X106880147Y-110625646D01*
X107005646Y-110500147D01*
X107153216Y-110401544D01*
X107317188Y-110333624D01*
X107466488Y-110303927D01*
X107491258Y-110299000D01*
X107668742Y-110299000D01*
X107693512Y-110303927D01*
G37*
G36*
X130701000Y-112101000D02*
G01*
X128899000Y-112101000D01*
X128899000Y-110299000D01*
X130701000Y-110299000D01*
X130701000Y-112101000D01*
G37*
G36*
X124833512Y-110303927D02*
G01*
X124982812Y-110333624D01*
X125146784Y-110401544D01*
X125294354Y-110500147D01*
X125419853Y-110625646D01*
X125518456Y-110773216D01*
X125586376Y-110937188D01*
X125621000Y-111111259D01*
X125621000Y-111288741D01*
X125586376Y-111462812D01*
X125518456Y-111626784D01*
X125419853Y-111774354D01*
X125294354Y-111899853D01*
X125146784Y-111998456D01*
X124982812Y-112066376D01*
X124833512Y-112096073D01*
X124808742Y-112101000D01*
X124631258Y-112101000D01*
X124606488Y-112096073D01*
X124457188Y-112066376D01*
X124293216Y-111998456D01*
X124145646Y-111899853D01*
X124020147Y-111774354D01*
X123921544Y-111626784D01*
X123853624Y-111462812D01*
X123819000Y-111288741D01*
X123819000Y-111111259D01*
X123853624Y-110937188D01*
X123921544Y-110773216D01*
X124020147Y-110625646D01*
X124145646Y-110500147D01*
X124293216Y-110401544D01*
X124457188Y-110333624D01*
X124606488Y-110303927D01*
X124631258Y-110299000D01*
X124808742Y-110299000D01*
X124833512Y-110303927D01*
G37*
G36*
X122293512Y-110303927D02*
G01*
X122442812Y-110333624D01*
X122606784Y-110401544D01*
X122754354Y-110500147D01*
X122879853Y-110625646D01*
X122978456Y-110773216D01*
X123046376Y-110937188D01*
X123081000Y-111111259D01*
X123081000Y-111288741D01*
X123046376Y-111462812D01*
X122978456Y-111626784D01*
X122879853Y-111774354D01*
X122754354Y-111899853D01*
X122606784Y-111998456D01*
X122442812Y-112066376D01*
X122293512Y-112096073D01*
X122268742Y-112101000D01*
X122091258Y-112101000D01*
X122066488Y-112096073D01*
X121917188Y-112066376D01*
X121753216Y-111998456D01*
X121605646Y-111899853D01*
X121480147Y-111774354D01*
X121381544Y-111626784D01*
X121313624Y-111462812D01*
X121279000Y-111288741D01*
X121279000Y-111111259D01*
X121313624Y-110937188D01*
X121381544Y-110773216D01*
X121480147Y-110625646D01*
X121605646Y-110500147D01*
X121753216Y-110401544D01*
X121917188Y-110333624D01*
X122066488Y-110303927D01*
X122091258Y-110299000D01*
X122268742Y-110299000D01*
X122293512Y-110303927D01*
G37*
G36*
X119753512Y-110303927D02*
G01*
X119902812Y-110333624D01*
X120066784Y-110401544D01*
X120214354Y-110500147D01*
X120339853Y-110625646D01*
X120438456Y-110773216D01*
X120506376Y-110937188D01*
X120541000Y-111111259D01*
X120541000Y-111288741D01*
X120506376Y-111462812D01*
X120438456Y-111626784D01*
X120339853Y-111774354D01*
X120214354Y-111899853D01*
X120066784Y-111998456D01*
X119902812Y-112066376D01*
X119753512Y-112096073D01*
X119728742Y-112101000D01*
X119551258Y-112101000D01*
X119526488Y-112096073D01*
X119377188Y-112066376D01*
X119213216Y-111998456D01*
X119065646Y-111899853D01*
X118940147Y-111774354D01*
X118841544Y-111626784D01*
X118773624Y-111462812D01*
X118739000Y-111288741D01*
X118739000Y-111111259D01*
X118773624Y-110937188D01*
X118841544Y-110773216D01*
X118940147Y-110625646D01*
X119065646Y-110500147D01*
X119213216Y-110401544D01*
X119377188Y-110333624D01*
X119526488Y-110303927D01*
X119551258Y-110299000D01*
X119728742Y-110299000D01*
X119753512Y-110303927D01*
G37*
G36*
X110233512Y-110303927D02*
G01*
X110382812Y-110333624D01*
X110546784Y-110401544D01*
X110694354Y-110500147D01*
X110819853Y-110625646D01*
X110918456Y-110773216D01*
X110986376Y-110937188D01*
X111021000Y-111111259D01*
X111021000Y-111288741D01*
X110986376Y-111462812D01*
X110918456Y-111626784D01*
X110819853Y-111774354D01*
X110694354Y-111899853D01*
X110546784Y-111998456D01*
X110382812Y-112066376D01*
X110233512Y-112096073D01*
X110208742Y-112101000D01*
X110031258Y-112101000D01*
X110006488Y-112096073D01*
X109857188Y-112066376D01*
X109693216Y-111998456D01*
X109545646Y-111899853D01*
X109420147Y-111774354D01*
X109321544Y-111626784D01*
X109253624Y-111462812D01*
X109219000Y-111288741D01*
X109219000Y-111111259D01*
X109253624Y-110937188D01*
X109321544Y-110773216D01*
X109420147Y-110625646D01*
X109545646Y-110500147D01*
X109693216Y-110401544D01*
X109857188Y-110333624D01*
X110006488Y-110303927D01*
X110031258Y-110299000D01*
X110208742Y-110299000D01*
X110233512Y-110303927D01*
G37*
G36*
X112773512Y-110303927D02*
G01*
X112922812Y-110333624D01*
X113086784Y-110401544D01*
X113234354Y-110500147D01*
X113359853Y-110625646D01*
X113458456Y-110773216D01*
X113526376Y-110937188D01*
X113561000Y-111111259D01*
X113561000Y-111288741D01*
X113526376Y-111462812D01*
X113458456Y-111626784D01*
X113359853Y-111774354D01*
X113234354Y-111899853D01*
X113086784Y-111998456D01*
X112922812Y-112066376D01*
X112773512Y-112096073D01*
X112748742Y-112101000D01*
X112571258Y-112101000D01*
X112546488Y-112096073D01*
X112397188Y-112066376D01*
X112233216Y-111998456D01*
X112085646Y-111899853D01*
X111960147Y-111774354D01*
X111861544Y-111626784D01*
X111793624Y-111462812D01*
X111759000Y-111288741D01*
X111759000Y-111111259D01*
X111793624Y-110937188D01*
X111861544Y-110773216D01*
X111960147Y-110625646D01*
X112085646Y-110500147D01*
X112233216Y-110401544D01*
X112397188Y-110333624D01*
X112546488Y-110303927D01*
X112571258Y-110299000D01*
X112748742Y-110299000D01*
X112773512Y-110303927D01*
G37*
G36*
X116101000Y-112101000D02*
G01*
X114299000Y-112101000D01*
X114299000Y-110299000D01*
X116101000Y-110299000D01*
X116101000Y-112101000D01*
G37*
G36*
X111301000Y-106101000D02*
G01*
X109499000Y-106101000D01*
X109499000Y-104299000D01*
X111301000Y-104299000D01*
X111301000Y-106101000D01*
G37*
G36*
X110513512Y-101763927D02*
G01*
X110662812Y-101793624D01*
X110826784Y-101861544D01*
X110974354Y-101960147D01*
X111099853Y-102085646D01*
X111198456Y-102233216D01*
X111266376Y-102397188D01*
X111301000Y-102571259D01*
X111301000Y-102748741D01*
X111266376Y-102922812D01*
X111198456Y-103086784D01*
X111099853Y-103234354D01*
X110974354Y-103359853D01*
X110826784Y-103458456D01*
X110662812Y-103526376D01*
X110513512Y-103556073D01*
X110488742Y-103561000D01*
X110311258Y-103561000D01*
X110286488Y-103556073D01*
X110137188Y-103526376D01*
X109973216Y-103458456D01*
X109825646Y-103359853D01*
X109700147Y-103234354D01*
X109601544Y-103086784D01*
X109533624Y-102922812D01*
X109499000Y-102748741D01*
X109499000Y-102571259D01*
X109533624Y-102397188D01*
X109601544Y-102233216D01*
X109700147Y-102085646D01*
X109825646Y-101960147D01*
X109973216Y-101861544D01*
X110137188Y-101793624D01*
X110286488Y-101763927D01*
X110311258Y-101759000D01*
X110488742Y-101759000D01*
X110513512Y-101763927D01*
G37*
M02*
