M48
; DRILL file {KiCad (5.1.5)-3} date 9/27/2020 12:59:42 PM
; FORMAT={-:-/ absolute / inch / decimal}
; #@! TF.CreationDate,2020-09-27T12:59:42-04:00
; #@! TF.GenerationSoftware,Kicad,Pcbnew,(5.1.5)-3
; #@! TF.FileFunction,Plated,1,2,PTH
FMAT,2
INCH
T1C0.0394
%
G90
G05
T1
X5.2244Y-5.0945
X5.0276Y-4.5906
X5.0276Y-4.8425
X5.0276Y-4.9425
X3.9803Y-4.5315
X3.9803Y-4.6315
X3.9803Y-4.7315
X3.9803Y-4.8315
X3.9803Y-4.9315
X5.0244Y-5.0945
X5.1244Y-5.0945
X4.2354Y-4.378
X4.3354Y-4.378
X4.4354Y-4.378
X4.5354Y-4.378
X5.1732Y-4.8425
X5.1732Y-4.9425
X5.0276Y-4.6906
X4.3465Y-4.0417
X4.3465Y-4.1417
X4.7102Y-4.378
X4.8102Y-4.378
X4.9102Y-4.378
X5.0102Y-4.378
X5.1102Y-4.378
T0
M30
