G04 #@! TF.GenerationSoftware,KiCad,Pcbnew,(5.1.5)-3*
G04 #@! TF.CreationDate,2020-09-29T12:27:54-04:00*
G04 #@! TF.ProjectId,LED-Driver-STM,4c45442d-4472-4697-9665-722d53544d2e,rev?*
G04 #@! TF.SameCoordinates,Original*
G04 #@! TF.FileFunction,Legend,Top*
G04 #@! TF.FilePolarity,Positive*
%FSLAX46Y46*%
G04 Gerber Fmt 4.6, Leading zero omitted, Abs format (unit mm)*
G04 Created by KiCad (PCBNEW (5.1.5)-3) date 2020-09-29 12:27:54*
%MOMM*%
%LPD*%
G04 APERTURE LIST*
%ADD10C,0.120000*%
%ADD11C,0.127000*%
%ADD12C,0.200000*%
%ADD13C,0.150000*%
G04 APERTURE END LIST*
D10*
X124810000Y-117258578D02*
X124810000Y-116741422D01*
X123390000Y-117258578D02*
X123390000Y-116741422D01*
X107150000Y-127600000D02*
X107150000Y-131600000D01*
X110450000Y-127600000D02*
X107150000Y-127600000D01*
X122310000Y-125865000D02*
X122310000Y-125190000D01*
X119090000Y-128410000D02*
X119265000Y-128410000D01*
X119090000Y-127735000D02*
X119090000Y-128410000D01*
X119090000Y-125190000D02*
X119265000Y-125190000D01*
X119090000Y-125865000D02*
X119090000Y-125190000D01*
X122310000Y-128410000D02*
X122135000Y-128410000D01*
X122310000Y-127735000D02*
X122310000Y-128410000D01*
X119565000Y-119090000D02*
X118890000Y-119090000D01*
X123110000Y-123310000D02*
X123110000Y-122635000D01*
X122435000Y-123310000D02*
X123110000Y-123310000D01*
X118890000Y-123310000D02*
X118890000Y-122635000D01*
X119565000Y-123310000D02*
X118890000Y-123310000D01*
X123110000Y-119090000D02*
X123110000Y-119765000D01*
X122435000Y-119090000D02*
X123110000Y-119090000D01*
X118000000Y-101290000D02*
X124010000Y-101290000D01*
X120250000Y-108110000D02*
X124010000Y-108110000D01*
X124010000Y-101290000D02*
X124010000Y-102550000D01*
X124010000Y-108110000D02*
X124010000Y-106850000D01*
X107840000Y-124210000D02*
X107840000Y-125500000D01*
X107390000Y-124210000D02*
X107840000Y-124210000D01*
X107390000Y-123760000D02*
X107390000Y-124210000D01*
X107390000Y-116990000D02*
X107840000Y-116990000D01*
X107390000Y-117440000D02*
X107390000Y-116990000D01*
X114610000Y-124210000D02*
X114160000Y-124210000D01*
X114610000Y-123760000D02*
X114610000Y-124210000D01*
X114610000Y-116990000D02*
X114160000Y-116990000D01*
X114610000Y-117440000D02*
X114610000Y-116990000D01*
D11*
X129450000Y-134920000D02*
X129450000Y-137280000D01*
X134550000Y-137280000D02*
X134550000Y-134920000D01*
D12*
X136350000Y-137975000D02*
G75*
G03X136350000Y-137975000I-100000J0D01*
G01*
D11*
X129750000Y-138650000D02*
X134250000Y-138650000D01*
X129750000Y-133550000D02*
X134250000Y-133550000D01*
X106950000Y-134820000D02*
X106950000Y-137180000D01*
X112050000Y-137180000D02*
X112050000Y-134820000D01*
D12*
X113850000Y-137875000D02*
G75*
G03X113850000Y-137875000I-100000J0D01*
G01*
D11*
X107250000Y-138550000D02*
X111750000Y-138550000D01*
X107250000Y-133450000D02*
X111750000Y-133450000D01*
X118250000Y-134920000D02*
X118250000Y-137280000D01*
X123350000Y-137280000D02*
X123350000Y-134920000D01*
D12*
X125150000Y-137975000D02*
G75*
G03X125150000Y-137975000I-100000J0D01*
G01*
D11*
X118550000Y-138650000D02*
X123050000Y-138650000D01*
X118550000Y-133550000D02*
X123050000Y-133550000D01*
D10*
X118760000Y-96880000D02*
X117300000Y-96880000D01*
X118760000Y-93720000D02*
X116600000Y-93720000D01*
X118760000Y-93720000D02*
X118760000Y-94650000D01*
X118760000Y-96880000D02*
X118760000Y-95950000D01*
X111511050Y-98667816D02*
X110122507Y-99118981D01*
X110534556Y-95662478D02*
X108480274Y-96329954D01*
X110534556Y-95662478D02*
X110821942Y-96546960D01*
X111511050Y-98667816D02*
X111223664Y-97783334D01*
X104943554Y-102731530D02*
X103762389Y-103589697D01*
X103086152Y-100175036D02*
X101338676Y-101444653D01*
X103086152Y-100175036D02*
X103632793Y-100927422D01*
X104943554Y-102731530D02*
X104396913Y-101979144D01*
X126334556Y-97237522D02*
X124946014Y-96786357D01*
X127311050Y-94232184D02*
X125256768Y-93564707D01*
X127311050Y-94232184D02*
X127023664Y-95116666D01*
X126334556Y-97237522D02*
X126621942Y-96353040D01*
X145120000Y-118960000D02*
X145120000Y-117500000D01*
X148280000Y-118960000D02*
X148280000Y-116800000D01*
X148280000Y-118960000D02*
X147350000Y-118960000D01*
X145120000Y-118960000D02*
X146050000Y-118960000D01*
X133386152Y-100224964D02*
X132204987Y-99366797D01*
X135243554Y-97668470D02*
X133496077Y-96398854D01*
X135243554Y-97668470D02*
X134696913Y-98420856D01*
X133386152Y-100224964D02*
X133932793Y-99472578D01*
X143132184Y-111511050D02*
X142681019Y-110122507D01*
X146137522Y-110534556D02*
X145470046Y-108480274D01*
X146137522Y-110534556D02*
X145253040Y-110821942D01*
X143132184Y-111511050D02*
X144016666Y-111223664D01*
X144562478Y-126534556D02*
X145013643Y-125146014D01*
X147567816Y-127511050D02*
X148235293Y-125456768D01*
X147567816Y-127511050D02*
X146683334Y-127223664D01*
X144562478Y-126534556D02*
X145446960Y-126821942D01*
X139268470Y-105043554D02*
X138410303Y-103862389D01*
X141824964Y-103186152D02*
X140555347Y-101438676D01*
X141824964Y-103186152D02*
X141072578Y-103732793D01*
X139268470Y-105043554D02*
X140020856Y-104496913D01*
X98567816Y-130488950D02*
X99018981Y-131877493D01*
X95562478Y-131465444D02*
X96229954Y-133519726D01*
X95562478Y-131465444D02*
X96446960Y-131178058D01*
X98567816Y-130488950D02*
X97683334Y-130776336D01*
X102431530Y-136956446D02*
X103289697Y-138137611D01*
X99875036Y-138813848D02*
X101144653Y-140561324D01*
X99875036Y-138813848D02*
X100627422Y-138267207D01*
X102431530Y-136956446D02*
X101679144Y-137503087D01*
X96680000Y-123140000D02*
X96680000Y-124600000D01*
X93520000Y-123140000D02*
X93520000Y-125300000D01*
X93520000Y-123140000D02*
X94450000Y-123140000D01*
X96680000Y-123140000D02*
X95750000Y-123140000D01*
X97337522Y-115465444D02*
X96886357Y-116853986D01*
X94332184Y-114488950D02*
X93664707Y-116543232D01*
X94332184Y-114488950D02*
X95216666Y-114776336D01*
X97337522Y-115465444D02*
X96453040Y-115178058D01*
X100024964Y-108613848D02*
X99166797Y-109795013D01*
X97468470Y-106756446D02*
X96198854Y-108503923D01*
X97468470Y-106756446D02*
X98220856Y-107303087D01*
X100024964Y-108613848D02*
X99272578Y-108067207D01*
X141675036Y-133486152D02*
X142533203Y-132304987D01*
X144231530Y-135343554D02*
X145501146Y-133596077D01*
X144231530Y-135343554D02*
X143479144Y-134796913D01*
X141675036Y-133486152D02*
X142427422Y-134032793D01*
X136856446Y-139368470D02*
X138037611Y-138510303D01*
X138713848Y-141924964D02*
X140461324Y-140655347D01*
X138713848Y-141924964D02*
X138167207Y-141172578D01*
X136856446Y-139368470D02*
X137403087Y-140120856D01*
X130288950Y-143532184D02*
X131677493Y-143081019D01*
X131265444Y-146537522D02*
X133319726Y-145870046D01*
X131265444Y-146537522D02*
X130978058Y-145653040D01*
X130288950Y-143532184D02*
X130576336Y-144416666D01*
X122940000Y-145220000D02*
X124400000Y-145220000D01*
X122940000Y-148380000D02*
X125100000Y-148380000D01*
X122940000Y-148380000D02*
X122940000Y-147450000D01*
X122940000Y-145220000D02*
X122940000Y-146150000D01*
X115465444Y-144662478D02*
X116853986Y-145113643D01*
X114488950Y-147667816D02*
X116543232Y-148335293D01*
X114488950Y-147667816D02*
X114776336Y-146783334D01*
X115465444Y-144662478D02*
X115178058Y-145546960D01*
X108413848Y-141875036D02*
X109595013Y-142733203D01*
X106556446Y-144431530D02*
X108303923Y-145701146D01*
X106556446Y-144431530D02*
X107103087Y-143679144D01*
X108413848Y-141875036D02*
X107867207Y-142627422D01*
X126370000Y-120470000D02*
X127700000Y-120470000D01*
X126370000Y-121800000D02*
X126370000Y-120470000D01*
X126370000Y-123070000D02*
X129030000Y-123070000D01*
X129030000Y-123070000D02*
X129030000Y-128210000D01*
X126370000Y-123070000D02*
X126370000Y-128210000D01*
X126370000Y-128210000D02*
X129030000Y-128210000D01*
X126370000Y-113770000D02*
X127700000Y-113770000D01*
X126370000Y-115100000D02*
X126370000Y-113770000D01*
X126370000Y-116370000D02*
X129030000Y-116370000D01*
X129030000Y-116370000D02*
X129030000Y-118970000D01*
X126370000Y-116370000D02*
X126370000Y-118970000D01*
X126370000Y-118970000D02*
X129030000Y-118970000D01*
X124570000Y-132630000D02*
X124570000Y-131300000D01*
X125900000Y-132630000D02*
X124570000Y-132630000D01*
X127170000Y-132630000D02*
X127170000Y-129970000D01*
X127170000Y-129970000D02*
X129770000Y-129970000D01*
X127170000Y-132630000D02*
X129770000Y-132630000D01*
X129770000Y-132630000D02*
X129770000Y-129970000D01*
X117270000Y-132630000D02*
X117270000Y-131300000D01*
X118600000Y-132630000D02*
X117270000Y-132630000D01*
X119870000Y-132630000D02*
X119870000Y-129970000D01*
X119870000Y-129970000D02*
X122470000Y-129970000D01*
X119870000Y-132630000D02*
X122470000Y-132630000D01*
X122470000Y-132630000D02*
X122470000Y-129970000D01*
X99770000Y-113770000D02*
X101100000Y-113770000D01*
X99770000Y-115100000D02*
X99770000Y-113770000D01*
X99770000Y-116370000D02*
X102430000Y-116370000D01*
X102430000Y-116370000D02*
X102430000Y-126590000D01*
X99770000Y-116370000D02*
X99770000Y-126590000D01*
X99770000Y-126590000D02*
X102430000Y-126590000D01*
X111730000Y-106530000D02*
X110400000Y-106530000D01*
X111730000Y-105200000D02*
X111730000Y-106530000D01*
X111730000Y-103930000D02*
X109070000Y-103930000D01*
X109070000Y-103930000D02*
X109070000Y-101330000D01*
X111730000Y-103930000D02*
X111730000Y-101330000D01*
X111730000Y-101330000D02*
X109070000Y-101330000D01*
X131130000Y-109870000D02*
X131130000Y-111200000D01*
X129800000Y-109870000D02*
X131130000Y-109870000D01*
X128530000Y-109870000D02*
X128530000Y-112530000D01*
X128530000Y-112530000D02*
X118310000Y-112530000D01*
X128530000Y-109870000D02*
X118310000Y-109870000D01*
X118310000Y-109870000D02*
X118310000Y-112530000D01*
X116530000Y-109870000D02*
X116530000Y-111200000D01*
X115200000Y-109870000D02*
X116530000Y-109870000D01*
X113930000Y-109870000D02*
X113930000Y-112530000D01*
X113930000Y-112530000D02*
X106250000Y-112530000D01*
X113930000Y-109870000D02*
X106250000Y-109870000D01*
X106250000Y-109870000D02*
X106250000Y-112530000D01*
X121585000Y-94285000D02*
X121585000Y-91800000D01*
X120215000Y-94285000D02*
X121585000Y-94285000D01*
X120215000Y-91800000D02*
X120215000Y-94285000D01*
X113372167Y-95390854D02*
X112604260Y-93027478D01*
X112069220Y-95814207D02*
X113372167Y-95390854D01*
X111301313Y-93450831D02*
X112069220Y-95814207D01*
X105744595Y-98960561D02*
X104283948Y-96950154D01*
X104636242Y-99765827D02*
X105744595Y-98960561D01*
X103175595Y-97755419D02*
X104636242Y-99765827D01*
X129830780Y-95814207D02*
X130598687Y-93450831D01*
X128527833Y-95390854D02*
X129830780Y-95814207D01*
X129295740Y-93027478D02*
X128527833Y-95390854D01*
X147615000Y-121685000D02*
X150100000Y-121685000D01*
X147615000Y-120315000D02*
X147615000Y-121685000D01*
X150100000Y-120315000D02*
X147615000Y-120315000D01*
X137163758Y-99765827D02*
X138624405Y-97755419D01*
X136055405Y-98960561D02*
X137163758Y-99765827D01*
X137516052Y-96950154D02*
X136055405Y-98960561D01*
X146509146Y-113372167D02*
X148872522Y-112604260D01*
X146085793Y-112069220D02*
X146509146Y-113372167D01*
X148449169Y-111301313D02*
X146085793Y-112069220D01*
X146085793Y-129930780D02*
X148449169Y-130698687D01*
X146509146Y-128627833D02*
X146085793Y-129930780D01*
X148872522Y-129395740D02*
X146509146Y-128627833D01*
X142839439Y-105844595D02*
X144849846Y-104383948D01*
X142034173Y-104736242D02*
X142839439Y-105844595D01*
X144044581Y-103275595D02*
X142034173Y-104736242D01*
X95290854Y-128627833D02*
X92927478Y-129395740D01*
X95714207Y-129930780D02*
X95290854Y-128627833D01*
X93350831Y-130698687D02*
X95714207Y-129930780D01*
X98860561Y-136155405D02*
X96850154Y-137616052D01*
X99665827Y-137263758D02*
X98860561Y-136155405D01*
X97655419Y-138724405D02*
X99665827Y-137263758D01*
X94185000Y-120315000D02*
X91700000Y-120315000D01*
X94185000Y-121685000D02*
X94185000Y-120315000D01*
X91700000Y-121685000D02*
X94185000Y-121685000D01*
X95714207Y-112069220D02*
X93350831Y-111301313D01*
X95290854Y-113372167D02*
X95714207Y-112069220D01*
X92927478Y-112604260D02*
X95290854Y-113372167D01*
X99665827Y-104836242D02*
X97655419Y-103375595D01*
X98860561Y-105944595D02*
X99665827Y-104836242D01*
X96850154Y-104483948D02*
X98860561Y-105944595D01*
X142134173Y-137263758D02*
X144144581Y-138724405D01*
X142939439Y-136155405D02*
X142134173Y-137263758D01*
X144949846Y-137616052D02*
X142939439Y-136155405D01*
X136055405Y-143039439D02*
X137516052Y-145049846D01*
X137163758Y-142234173D02*
X136055405Y-143039439D01*
X138624405Y-144244581D02*
X137163758Y-142234173D01*
X128527833Y-146609146D02*
X129295740Y-148972522D01*
X129830780Y-146185793D02*
X128527833Y-146609146D01*
X130598687Y-148549169D02*
X129830780Y-146185793D01*
X120215000Y-147715000D02*
X120215000Y-150200000D01*
X121585000Y-147715000D02*
X120215000Y-147715000D01*
X121585000Y-150200000D02*
X121585000Y-147715000D01*
X111969220Y-146185793D02*
X111201313Y-148549169D01*
X113272167Y-146609146D02*
X111969220Y-146185793D01*
X112504260Y-148972522D02*
X113272167Y-146609146D01*
X104636242Y-142234173D02*
X103175595Y-144244581D01*
X105744595Y-143039439D02*
X104636242Y-142234173D01*
X104283948Y-145049846D02*
X105744595Y-143039439D01*
X129885000Y-104985000D02*
X129885000Y-102500000D01*
X128515000Y-104985000D02*
X129885000Y-104985000D01*
X128515000Y-102500000D02*
X128515000Y-104985000D01*
X116700000Y-99850000D02*
X116700000Y-103750000D01*
X114700000Y-99850000D02*
X114700000Y-103750000D01*
X116700000Y-99850000D02*
X114700000Y-99850000D01*
X113090000Y-106341422D02*
X113090000Y-106858578D01*
X114510000Y-106341422D02*
X114510000Y-106858578D01*
D13*
X118152380Y-102838095D02*
X117152380Y-102838095D01*
X117152380Y-102600000D01*
X117200000Y-102457142D01*
X117295238Y-102361904D01*
X117390476Y-102314285D01*
X117580952Y-102266666D01*
X117723809Y-102266666D01*
X117914285Y-102314285D01*
X118009523Y-102361904D01*
X118104761Y-102457142D01*
X118152380Y-102600000D01*
X118152380Y-102838095D01*
X118152380Y-101314285D02*
X118152380Y-101885714D01*
X118152380Y-101600000D02*
X117152380Y-101600000D01*
X117295238Y-101695238D01*
X117390476Y-101790476D01*
X117438095Y-101885714D01*
M02*
