M48
; DRILL file {KiCad (5.1.5)-3} date 9/29/2020 12:27:51 PM
; FORMAT={-:-/ absolute / inch / decimal}
; #@! TF.CreationDate,2020-09-29T12:27:51-04:00
; #@! TF.GenerationSoftware,Kicad,Pcbnew,(5.1.5)-3
; #@! TF.FileFunction,Plated,1,2,PTH
FMAT,2
INCH
T1C0.0118
T2C0.0157
T3C0.0394
%
G90
G05
T1
X4.0827Y-5.0197
X4.0945Y-4.8002
X4.1332Y-4.7789
X4.1361Y-4.6355
X4.1417Y-4.2632
X4.1526Y-4.5901
X4.1603Y-4.6271
X4.1969Y-4.2598
X4.2008Y-4.9252
X4.2008Y-5.1417
X4.2323Y-5.2795
X4.252Y-4.8386
X4.2559Y-4.7402
X4.2638Y-5.122
X4.2717Y-4.437
X4.2838Y-4.4577
X4.2874Y-4.7323
X4.3031Y-5.0787
X4.3661Y-5.122
X4.374Y-4.4607
X4.374Y-4.437
X4.3858Y-5.2795
X4.4016Y-4.8661
X4.4206Y-4.5289
X4.4213Y-5.1614
X4.4494Y-4.5292
X4.4848Y-5.0591
X4.4882Y-4.6614
X4.5236Y-5.0039
X4.5236Y-5.0827
X4.5906Y-4.7569
X4.5906Y-4.8573
X4.6063Y-4.4055
X4.6063Y-4.5827
X4.6063Y-4.7156
X4.6112Y-4.8189
X4.6266Y-4.7982
X4.6299Y-4.3976
X4.6535Y-4.7362
X4.6703Y-4.7982
X4.6811Y-4.8583
X4.6811Y-5.2835
X4.6929Y-4.6713
X4.6929Y-4.6949
X4.6969Y-4.9213
X4.7283Y-4.7992
X4.7323Y-4.9173
X4.752Y-4.7992
X4.752Y-5.0039
X4.796Y-4.9252
X4.8031Y-4.8661
X4.8386Y-5.2835
X4.8545Y-4.8388
X4.8842Y-4.6929
X4.8858Y-4.5812
X4.8872Y-4.9581
X4.9055Y-5.0118
X5.1063Y-4.8504
X5.1102Y-4.752
X5.1102Y-4.9488
X5.1142Y-5.2835
X5.1332Y-4.7462
X5.1575Y-4.748
X5.2835Y-5.2835
T2
X3.8346Y-4.626
X3.8346Y-4.9173
X3.9173Y-4.3504
X3.9252Y-5.1969
X4.0906Y-4.1063
X4.0984Y-5.437
X4.2402Y-5.4291
X4.3031Y-4.8268
X4.3268Y-3.9331
X4.3425Y-5.6063
X4.3819Y-5.4291
X4.4803Y-4.2362
X4.563Y-4.2323
X4.6024Y-3.8425
X4.626Y-5.6929
X4.6575Y-4.0157
X4.6575Y-4.0472
X4.685Y-5.4331
X4.7087Y-4.0157
X4.7087Y-4.0472
X4.8268Y-5.4331
X4.8976Y-3.8307
X4.9134Y-5.6929
X5.0866Y-4.2441
X5.126Y-5.4291
X5.1811Y-3.9213
X5.1929Y-5.6024
X5.2677Y-5.4291
X5.4213Y-4.0906
X5.4291Y-5.4291
X5.5906Y-4.3346
X5.5984Y-5.185
X5.689Y-4.6142
X5.689Y-4.9094
T3
X4.3465Y-4.0417
X4.3465Y-4.1417
X4.9567Y-5.1693
X5.0567Y-5.1693
X5.0276Y-4.5315
X5.0276Y-4.6315
X3.9803Y-4.5315
X3.9803Y-4.6315
X3.9803Y-4.7315
X3.9803Y-4.8315
X3.9803Y-4.9315
X4.2354Y-4.378
X4.3354Y-4.378
X4.4354Y-4.378
X4.5354Y-4.378
X5.0276Y-4.7953
X5.0276Y-4.8953
X5.0276Y-4.9953
X4.7102Y-4.378
X4.8102Y-4.378
X4.9102Y-4.378
X5.0102Y-4.378
X5.1102Y-4.378
X4.6693Y-5.1693
X4.7693Y-5.1693
T0
M30
